<svg width="30" height="30" viewBox="0 0 30 30" fill="none" xmlns="http://www.w3.org/2000/svg">
<circle cx="15" cy="15" r="13.5" stroke="#D83131" stroke-width="3"/>
<path d="M20.9738 10.7945C21.5406 10.7945 22 10.3351 22 9.76836C22 9.20162 21.5406 8.74219 20.9738 8.74219C20.4071 8.74219 19.9477 9.20162 19.9477 9.76836C19.9477 10.3351 20.4071 10.7945 20.9738 10.7945Z" fill="#030104"/>
<path d="M18.2374 8.73203C18.8041 8.73203 19.2635 8.2726 19.2635 7.70586C19.2635 7.13912 18.8041 6.67969 18.2374 6.67969C17.6706 6.67969 17.2112 7.13912 17.2112 7.70586C17.2112 8.2726 17.6706 8.73203 18.2374 8.73203Z" fill="#030104"/>
<path d="M15.5009 8.05234C16.0677 8.05234 16.5271 7.59291 16.5271 7.02617C16.5271 6.45943 16.0677 6 15.5009 6C14.9342 6 14.4748 6.45943 14.4748 7.02617C14.4748 7.59291 14.9342 8.05234 15.5009 8.05234Z" fill="#030104"/>
<path d="M12.7645 9.41953C13.3312 9.41953 13.7906 8.9601 13.7906 8.39336C13.7906 7.82662 13.3312 7.36719 12.7645 7.36719C12.1977 7.36719 11.7383 7.82662 11.7383 8.39336C11.7383 8.9601 12.1977 9.41953 12.7645 9.41953Z" fill="#030104"/>
<path d="M19.9477 9.75989V14.2066C19.9477 14.2973 19.9116 14.3844 19.8475 14.4485C19.7833 14.5126 19.6963 14.5487 19.6056 14.5487C19.5149 14.5487 19.4279 14.5126 19.3637 14.4485C19.2996 14.3844 19.2635 14.2973 19.2635 14.2066V7.70755H17.2112V13.5225C17.2112 13.6132 17.1752 13.7002 17.111 13.7644C17.0469 13.8285 16.9599 13.8646 16.8691 13.8646C16.7784 13.8646 16.6914 13.8285 16.6273 13.7644C16.5631 13.7002 16.5271 13.6132 16.5271 13.5225V7.02344H14.4748V13.5225C14.4748 13.6132 14.4387 13.7002 14.3746 13.7644C14.3104 13.8285 14.2234 13.8646 14.1327 13.8646C14.042 13.8646 13.955 13.8285 13.8908 13.7644C13.8267 13.7002 13.7906 13.6132 13.7906 13.5225V8.39166H11.7383V16.9431L10.353 15.0474C9.9425 14.4146 9.1414 14.2025 8.55443 14.5651C7.96952 14.9359 7.82448 15.7445 8.22948 16.3753C8.22948 16.3753 10.4638 19.7568 11.4161 21.2044C12.3684 22.652 13.911 23.7842 16.7959 23.7842C21.5724 23.7842 22 20.0955 22 18.9954V9.75989H19.9477Z" fill="#030104"/>
<rect x="23.6257" y="3.58594" width="4" height="28.6859" transform="rotate(45 23.6257 3.58594)" fill="#D83131"/>
<path d="M11.5903 19.7225L10.1902 18.3224L11.0897 17.423L11.2912 17.6245L10.6166 18.2991L11.0345 18.717L11.5903 18.1612L11.7939 18.3649L11.2381 18.9207L11.8151 19.4977L11.5903 19.7225ZM12.8396 17.2131L13.4696 17.8432L13.2617 18.0511L13.1451 17.9344C13.1599 18.102 13.0942 18.2653 12.952 18.4074C12.7335 18.6259 12.4684 18.6493 12.288 18.469C12.1077 18.2887 12.1396 18.0235 12.375 17.788L12.6699 17.4932L12.602 17.4253C12.4578 17.281 12.2987 17.2831 12.1565 17.4253C12.0399 17.542 12.0059 17.6777 12.0229 17.8686L11.762 17.8665C11.7153 17.612 11.798 17.385 11.9783 17.2047C12.235 16.948 12.5596 16.9331 12.8396 17.2131ZM12.8502 17.6735L12.8311 17.6544L12.5638 17.9217C12.445 18.0405 12.4217 18.1486 12.5065 18.2335C12.5935 18.3205 12.7187 18.2971 12.8269 18.189C12.9775 18.0383 12.9923 17.8156 12.8502 17.6735ZM13.7796 17.5332L12.738 16.4916L12.9608 16.2689L14.0024 17.3104L13.7796 17.5332ZM12.3095 16.1437C12.2268 16.061 12.2289 15.9273 12.3138 15.8425C12.3965 15.7598 12.5302 15.7576 12.6129 15.8404C12.6956 15.9231 12.6914 16.0546 12.6086 16.1374C12.5238 16.2222 12.3923 16.2265 12.3095 16.1437ZM14.3244 16.9884L12.7335 15.3974L12.9562 15.1746L14.5472 16.7656L14.3244 16.9884ZM15.022 15.9005L15.6139 15.3086L15.809 15.5038L14.8056 16.5072L14.7547 16.4562L14.7165 15.421C14.7081 15.1028 14.6741 14.9331 14.5553 14.8143C14.4132 14.6722 14.218 14.6595 14.0759 14.8016C13.9338 14.9437 13.9486 15.1495 14.0929 15.2938C14.1226 15.3235 14.1629 15.3553 14.2117 15.3913L13.9847 15.6183C13.9359 15.5908 13.8914 15.5547 13.8489 15.5123C13.6198 15.2832 13.5859 14.8801 13.8723 14.5937C14.1395 14.3264 14.5256 14.318 14.7717 14.564C14.8672 14.6595 14.9287 14.7719 14.9563 14.9013C14.986 15.0286 15.0008 15.1919 15.0072 15.3935L15.022 15.9005ZM16.6454 13.628C16.953 13.9356 16.97 14.3895 16.6793 14.6801C16.5266 14.8329 16.3336 14.9071 16.1469 14.8774L16.2911 15.0217L16.0832 15.2296L14.4922 13.6386L14.715 13.4158L15.3917 14.0925C15.3747 13.9186 15.4447 13.7383 15.589 13.594C15.8838 13.2992 16.3357 13.3183 16.6454 13.628ZM16.4142 13.8549C16.2148 13.6555 15.9347 13.6555 15.7566 13.8337C15.5932 13.9971 15.555 14.2601 15.7841 14.4892C16.0111 14.7162 16.2742 14.678 16.4375 14.5147C16.6178 14.3344 16.6136 14.0544 16.4142 13.8549ZM17.6188 12.434L18.2488 13.064L18.0409 13.2719L17.9242 13.1552C17.9391 13.3228 17.8733 13.4861 17.7312 13.6283C17.5127 13.8468 17.2475 13.8701 17.0672 13.6898C16.8869 13.5095 16.9187 13.2443 17.1542 13.0088L17.4491 12.714L17.3812 12.6461C17.2369 12.5018 17.0778 12.504 16.9357 12.6461C16.819 12.7628 16.7851 12.8985 16.8021 13.0894L16.5411 13.0873C16.4945 12.8328 16.5772 12.6058 16.7575 12.4255C17.0142 12.1688 17.3388 12.1539 17.6188 12.434ZM17.6294 12.8943L17.6103 12.8752L17.343 13.1425C17.2242 13.2613 17.2009 13.3695 17.2857 13.4543C17.3727 13.5413 17.4979 13.518 17.606 13.4098C17.7567 13.2592 17.7715 13.0364 17.6294 12.8943ZM18.8176 11.1927L19.4689 11.844L19.2461 12.0667L18.6246 11.4451C18.4803 11.3009 18.2915 11.2945 18.1558 11.4303C18.0179 11.5682 18.0179 11.7676 18.16 11.9097L18.7815 12.5313L18.5588 12.754L17.5172 11.7124L17.7251 11.5045L17.8269 11.6064C17.8227 11.4451 17.8842 11.2988 18.0136 11.1694C18.2576 10.9254 18.5694 10.9445 18.8176 11.1927Z" fill="white"/>
</svg>
