<svg xmlns="http://www.w3.org/2000/svg" version="1.1" xmlns:xlink="http://www.w3.org/1999/xlink" xmlns:svgjs="http://svgjs.com/svgjs" width="512" height="512" x="0" y="0" viewBox="0 0 512 512" style="enable-background:new 0 0 512 512" xml:space="preserve"><g><g><g><path d="m512 116.01v342.2c0 29.66-24.13 53.79-53.79 53.79h-404.42c-29.66 0-53.79-24.13-53.79-53.79v-342.2l39.25-23.37h444.02z" fill="#574d8c" data-original="#574d8c"></path></g><path d="m512 116.01v342.2c0 29.66-24.13 53.79-53.79 53.79h-202.21v-419.36h227.27z" fill="#3e3373" data-original="#3e3373"></path><path d="m278.224 26.534-22.224-26.534h-202.21c-29.66 0-53.79 24.13-53.79 53.79v62.22h256l22.224-25.755z" fill="#aa99ff" data-original="#aa99ff"></path><path d="m512 53.79v62.22h-256v-116.01h202.21c29.66 0 53.79 24.13 53.79 53.79z" fill="#9966ff" data-original="#9966ff"></path><circle cx="447" cy="58.005" fill="#ff4d88" r="15" data-original="#ff4d88"></circle><circle cx="387" cy="58.005" fill="#ffd480" r="15" data-original="#ffd480"></circle><g><g><g><path d="m77.492 259.381c-3.39 0-6.797-1.142-9.603-3.483-6.36-5.308-7.214-14.767-1.907-21.127l28.183-33.774-27.99-32.228c-5.432-6.255-4.766-15.729 1.489-21.161 6.254-5.433 15.729-4.765 21.161 1.489l36.363 41.869c4.826 5.557 4.907 13.795.192 19.446l-36.363 43.579c-2.966 3.554-7.231 5.389-11.525 5.39z" fill="#99ddff" data-original="#99ddff"></path></g></g><g><path d="m256 229.38h-102.14c-8.28 0-15 6.72-15 15s6.72 15 15 15h102.14l24.121-16.696z" fill="#99ddff" data-original="#99ddff"></path></g></g><path d="m424.525 313.007c-8.284 0-15 6.716-15 15v40.042h-48.885v-40.042c0-8.284-6.716-15-15-15s-15 6.716-15 15v113.993c0 8.284 6.716 15 15 15s15-6.716 15-15v-43.951h48.885v43.951c0 8.284 6.716 15 15 15s15-6.716 15-15v-113.993c0-8.284-6.715-15-15-15z" fill="#ccd6e7" data-original="#ccd6e7"></path><g fill="#e4ebf2"><path d="m142.289 371.829c-13.873-5.117-26.799-10.688-30.901-12.482-2.727-2.255-2.632-5.362-2.444-6.666.269-1.869 1.638-6.441 8.54-8.521 11.531-3.474 22.486 1.843 27.628 5.022 1.362.842 2.605 1.846 3.847 2.857 4.272 3.476 15.301 5.935 21.628-4.673 6.824-11.441-3.202-19.123-3.202-19.123-1.088-.915-27.027-22.305-58.554-12.808-16.021 4.826-27.355 17.464-29.583 32.983-2.093 14.579 4.228 28.604 16.494 36.602 3.175 2.069 26.08 11.236 36.164 14.955 3.762 1.387 15.92 6.546 14.467 14.683-1.083 6.067-8.552 12.342-19.174 12.342-11.122 0-21.817-4.475-28.609-11.97-5.563-6.138-15.049-6.606-21.188-1.042-6.139 5.563-6.605 15.049-1.043 21.188 12.569 13.87 31.1 21.825 50.84 21.825 24.388 0 44.871-15.59 48.707-37.069 2.891-16.194-4.422-37.334-33.617-48.103z" fill="#e4ebf2" data-original="#e4ebf2"></path><path d="m226.85 386.15c.6.27 13.55 6.04 29.15 11.98l6.906-13.127-6.906-19.113c-7.29-2.95-13.08-5.45-15.58-6.54-2.73-2.26-2.63-5.37-2.45-6.67.27-1.87 1.64-6.44 8.54-8.52 3.25-.98 6.45-1.26 9.49-1.08l11.034-16.079-11.034-13.961c-5.72-.17-11.82.49-18.14 2.4-16.02 4.82-27.35 17.46-29.58 32.98-2.8 19.5 9.8 33.82 18.57 37.73z" fill="#e4ebf2" data-original="#e4ebf2"></path><path d="m267.034 443.783-11.034-16.783c-11.04-.06-21.64-4.52-28.38-11.97-5.56-6.14-15.05-6.61-21.19-1.04-6.14 5.56-6.6 15.05-1.04 21.19 12.52 13.81 30.96 21.76 50.61 21.82z" fill="#e4ebf2" data-original="#e4ebf2"></path></g><path d="m449.5 244.38c0 8.28-6.72 15-15 15h-178.5v-30h178.5c8.28 0 15 6.72 15 15z" fill="#80bfff" data-original="#80bfff"></path><path d="m274.013 349.096c-3.719-2.28-10.345-5.586-18.013-6.016v-30.04c22.8.65 39.55 14.47 40.41 15.2 0 0 10.03 7.69 3.21 19.13-6.333 10.604-17.356 8.146-21.629 4.666-1.283-1.045-2.568-2.076-3.978-2.94z" fill="#ccd6e7" data-original="#ccd6e7"></path><path d="m304.94 419.93c-3.84 21.48-24.32 37.07-48.71 37.07h-.23v-30h.23c10.62 0 18.09-6.28 19.17-12.34 1.46-8.14-10.7-13.3-14.46-14.68-1.67-.61-3.32-1.23-4.94-1.85v-32.24c4.65 1.88 9.91 3.94 15.32 5.94 29.19 10.77 36.51 31.91 33.62 48.1z" fill="#ccd6e7" data-original="#ccd6e7"></path></g></g></svg>