<svg xmlns="http://www.w3.org/2000/svg" version="1.1" xmlns:xlink="http://www.w3.org/1999/xlink" xmlns:svgjs="http://svgjs.com/svgjs" width="512" height="512" x="0" y="0" viewBox="0 0 682.66669 682.66669" style="enable-background:new 0 0 512 512" xml:space="preserve" class="hovered-paths"><g><defs id="defs481"><clipPath clipPathUnits="userSpaceOnUse" id="clipPath491"><path d="M 0,512 H 512 V 0 H 0 Z" id="path489" fill="#000000" data-original="#000000"></path></clipPath></defs><g id="g483" transform="matrix(1.3333333,0,0,-1.3333333,0,682.66667)"><g id="g485"><g id="g487" clip-path="url(#clipPath491)"><g id="g493" transform="translate(10,313.1919)"><path d="m 0,0 v -54.796 h 61.091 45.402 v 70.05 H 15.237 C 6.872,15.254 0,8.387 0,0" style="fill-opacity:1;fill-rule:evenodd;stroke:none" id="path495" fill="#ff7b79" data-original="#ff7b79"></path></g><g id="g497" transform="translate(116.4932,328.4458)"><path d="m 0,0 v -70.05 h 55.485 55.487 V 0 H 27.18 Z" style="fill-opacity:1;fill-rule:evenodd;stroke:none" id="path499" fill="#ff9c9b" data-original="#ff9c9b" class="hovered-path"></path></g><g id="g501" transform="translate(227.4648,328.4458)"><path d="m 0,0 v -70.05 h 55.485 55.486 V 0 H 76.412 Z" style="fill-opacity:1;fill-rule:evenodd;stroke:none" id="path503" fill="#ff7b79" data-original="#ff7b79"></path></g><g id="g505" transform="translate(338.4355,328.4458)"><path d="m 0,0 v -70.05 h 45.403 61.09 v 54.796 C 106.493,-6.867 99.649,0 91.256,0 Z" style="fill-opacity:1;fill-rule:evenodd;stroke:none" id="path507" fill="#ff9c9b" data-original="#ff9c9b" class="hovered-path"></path></g><g id="g509" transform="translate(383.8389,258.396)"><path d="M 0,0 V -57.132 L 29.968,-42.216 61.09,-57.695 V 0 Z" style="fill-opacity:1;fill-rule:evenodd;stroke:none" id="path511" fill="#ff9c9b" data-original="#ff9c9b" class="hovered-path"></path></g><g id="g513" transform="translate(282.9502,258.396)"><path d="m 0,0 v -70.05 h 74.92 l 25.969,12.918 V 0 H 55.485 Z" style="fill-opacity:1;fill-rule:evenodd;stroke:none" id="path515" fill="#ff7b79" data-original="#ff7b79"></path></g><g id="g517" transform="translate(171.9785,258.396)"><path d="m 0,0 v -70.05 h 55.486 55.486 V 0 H 55.486 Z" style="fill-opacity:1;fill-rule:evenodd;stroke:none" id="path519" fill="#ff9c9b" data-original="#ff9c9b" class="hovered-path"></path></g><g id="g521" transform="translate(71.0908,258.396)"><path d="m 0,0 v -70.05 h 45.402 55.486 V 0 H 45.402 Z" style="fill-opacity:1;fill-rule:evenodd;stroke:none" id="path523" fill="#ff7b79" data-original="#ff7b79"></path></g><path d="m 10,188.346 h 61.091 v 70.05 H 10 Z" style="fill-opacity:1;fill-rule:evenodd;stroke:none" id="path525" fill="#ff9c9b" data-original="#ff9c9b" class="hovered-path"></path><g id="g527" transform="translate(10,188.3457)"><path d="m 0,0 v -70.022 h 61.091 45.402 V 0 H 61.091 Z" style="fill-opacity:1;fill-rule:evenodd;stroke:none" id="path529" fill="#ff7b79" data-original="#ff7b79"></path></g><g id="g531" transform="translate(116.4932,188.3457)"><path d="m 0,0 v -70.022 h 55.485 55.487 V 0 H 55.485 Z" style="fill-opacity:1;fill-rule:evenodd;stroke:none" id="path533" fill="#ff9c9b" data-original="#ff9c9b" class="hovered-path"></path></g><g id="g535" transform="translate(227.4648,188.3457)"><path d="m 0,0 v -70.022 h 55.485 49.853 c -4.844,14.522 -7.323,29.101 -7.182,43.201 0.113,10.948 2.76,12.158 12.618,17.055 L 130.405,0 h -74.92 z" style="fill-opacity:1;fill-rule:evenodd;stroke:none" id="path537" fill="#ff7b79" data-original="#ff7b79"></path></g><g id="g539" transform="translate(282.9502,118.3237)"><path d="M 0,0 V -70.05 H 93.002 C 82.215,-59.243 72.779,-46.438 64.696,-32.563 58.499,-21.896 53.515,-10.948 49.853,0 Z" style="fill-opacity:1;fill-rule:evenodd;stroke:none" id="path541" fill="#ff7b79" data-original="#ff7b79"></path></g><g id="g543" transform="translate(227.4648,118.3237)"><path d="M 0,0 H -55.486 V -70.05 H 55.485 V 0 Z" style="fill-opacity:1;fill-rule:evenodd;stroke:none" id="path545" fill="#ff9c9b" data-original="#ff9c9b" class="hovered-path"></path></g><g id="g547" transform="translate(10,118.3237)"><path d="M 0,0 V -54.796 C 0,-63.183 6.872,-70.05 15.237,-70.05 H 61.091 V 0 Z" style="fill-opacity:1;fill-rule:evenodd;stroke:none" id="path549" fill="#ff9c9b" data-original="#ff9c9b" class="hovered-path"></path></g><g id="g551" transform="translate(71.0908,118.3237)"><path d="M 0,0 V -70.05 H 100.888 V 0 H 45.402 Z" style="fill-opacity:1;fill-rule:evenodd;stroke:none" id="path553" fill="#ff7b79" data-original="#ff7b79"></path></g><g id="g555" transform="translate(212.4805,488.5)"><path d="m 0,0 c -28.531,-98.897 -82.412,-50.096 -82.412,-160.054 h 13.604 83.792 76.412 c 5.493,29.41 21.631,74.778 -15.068,93.156 3.859,-30.339 -61.457,-37.628 -42.22,13.903 C 41.741,-32.534 20.279,0 0,0" style="fill-opacity:1;fill-rule:evenodd;stroke:none" id="path557" fill="#ffcd69" data-original="#ffcd69" class=""></path></g><g id="g559" transform="translate(338.2393,178.5796)"><path d="m 0,0 c -9.858,-4.897 -12.506,-6.107 -12.618,-17.055 -0.142,-14.1 2.338,-28.678 7.181,-43.201 3.663,-10.948 8.647,-21.896 14.844,-32.562 8.083,-13.875 17.519,-26.681 28.306,-37.488 8.337,-8.359 17.518,-15.507 27.489,-20.995 9.154,-5.038 11.605,-5.038 20.73,0 22.871,12.58 41.46,33.857 55.796,58.483 8.957,15.394 15.35,31.296 18.899,47.056 2.14,9.682 3.238,19.307 3.126,28.707 -0.057,5.91 -0.845,9.006 -3.126,11.342 -1.943,1.998 -4.958,3.462 -9.492,5.713 L 106.689,22.121 75.567,37.601 45.6,22.684 19.631,9.766 Z" style="fill-opacity:1;fill-rule:evenodd;stroke:none" id="path561" fill="#a0e5a5" data-original="#a0e5a5"></path></g><g id="g563" transform="translate(191.7793,442.7383)"><path d="m 0,0 c 7.52,10.61 14.674,24.879 20.701,45.762 20.279,0 41.741,-32.534 34.109,-52.995 -19.238,-51.532 46.078,-44.243 42.219,-13.903 36.7,-18.378 20.561,-63.746 15.069,-93.156 m -173.809,0 c 0,22.853 2.338,38.838 6.281,50.743" style="stroke-width:20.148;stroke-linecap:round;stroke-linejoin:round;stroke-miterlimit:10;stroke-dasharray:none;stroke-opacity:1" id="path565" fill="none" stroke="#000000" stroke-width="20.148" stroke-linecap="round" stroke-linejoin="round" stroke-miterlimit="10" stroke-dasharray="none" stroke-opacity="" data-original="#000000"></path></g><g id="g567" transform="translate(375.9521,48.2734)"><path d="m 0,0 h -350.715 c -8.365,0 -15.237,6.867 -15.237,15.254 v 249.664 c 0,8.387 6.872,15.254 15.237,15.254 H 53.739 c 8.394,0 15.238,-6.867 15.238,-15.254 V 152.427" style="stroke-width:20.148;stroke-linecap:round;stroke-linejoin:round;stroke-miterlimit:10;stroke-dasharray:none;stroke-opacity:1" id="path569" fill="none" stroke="#000000" stroke-width="20.148" stroke-linecap="round" stroke-linejoin="round" stroke-miterlimit="10" stroke-dasharray="none" stroke-opacity="" data-original="#000000"></path></g><g id="g571" transform="translate(227.4648,328.4458)"><path d="M 0,0 V -70.05" style="stroke-width:20.148;stroke-linecap:round;stroke-linejoin:round;stroke-miterlimit:10;stroke-dasharray:none;stroke-opacity:1" id="path573" fill="none" stroke="#000000" stroke-width="20.148" stroke-linecap="round" stroke-linejoin="round" stroke-miterlimit="10" stroke-dasharray="none" stroke-opacity="" data-original="#000000"></path></g><g id="g575" transform="translate(116.4932,328.4458)"><path d="M 0,0 V -70.05" style="stroke-width:20.148;stroke-linecap:round;stroke-linejoin:round;stroke-miterlimit:10;stroke-dasharray:none;stroke-opacity:1" id="path577" fill="none" stroke="#000000" stroke-width="20.148" stroke-linecap="round" stroke-linejoin="round" stroke-miterlimit="10" stroke-dasharray="none" stroke-opacity="" data-original="#000000"></path></g><g id="g579" transform="translate(338.4355,328.4458)"><path d="M 0,0 V -70.05" style="stroke-width:20.148;stroke-linecap:round;stroke-linejoin:round;stroke-miterlimit:10;stroke-dasharray:none;stroke-opacity:1" id="path581" fill="none" stroke="#000000" stroke-width="20.148" stroke-linecap="round" stroke-linejoin="round" stroke-miterlimit="10" stroke-dasharray="none" stroke-opacity="" data-original="#000000"></path></g><g id="g583" transform="translate(10,258.396)"><path d="M 0,0 H 434.929" style="stroke-width:20.148;stroke-linecap:round;stroke-linejoin:round;stroke-miterlimit:10;stroke-dasharray:none;stroke-opacity:1" id="path585" fill="none" stroke="#000000" stroke-width="20.148" stroke-linecap="round" stroke-linejoin="round" stroke-miterlimit="10" stroke-dasharray="none" stroke-opacity="" data-original="#000000"></path></g><g id="g587" transform="translate(10,188.3457)"><path d="M 0,0 H 347.87" style="stroke-width:20.148;stroke-linecap:round;stroke-linejoin:round;stroke-miterlimit:10;stroke-dasharray:none;stroke-opacity:1" id="path589" fill="none" stroke="#000000" stroke-width="20.148" stroke-linecap="round" stroke-linejoin="round" stroke-miterlimit="10" stroke-dasharray="none" stroke-opacity="" data-original="#000000"></path></g><g id="g591" transform="translate(10,118.3237)"><path d="M 0,0 H 322.803" style="stroke-width:20.148;stroke-linecap:round;stroke-linejoin:round;stroke-miterlimit:10;stroke-dasharray:none;stroke-opacity:1" id="path593" fill="none" stroke="#000000" stroke-width="20.148" stroke-linecap="round" stroke-linejoin="round" stroke-miterlimit="10" stroke-dasharray="none" stroke-opacity="" data-original="#000000"></path></g><g id="g595" transform="translate(171.9785,258.396)"><path d="M 0,0 V -70.05" style="stroke-width:20.148;stroke-linecap:round;stroke-linejoin:round;stroke-miterlimit:10;stroke-dasharray:none;stroke-opacity:1" id="path597" fill="none" stroke="#000000" stroke-width="20.148" stroke-linecap="round" stroke-linejoin="round" stroke-miterlimit="10" stroke-dasharray="none" stroke-opacity="" data-original="#000000"></path></g><g id="g599" transform="translate(71.0908,258.396)"><path d="M 0,0 V -70.05" style="stroke-width:20.148;stroke-linecap:round;stroke-linejoin:round;stroke-miterlimit:10;stroke-dasharray:none;stroke-opacity:1" id="path601" fill="none" stroke="#000000" stroke-width="20.148" stroke-linecap="round" stroke-linejoin="round" stroke-miterlimit="10" stroke-dasharray="none" stroke-opacity="" data-original="#000000"></path></g><g id="g603" transform="translate(282.9502,258.396)"><path d="M 0,0 V -70.05" style="stroke-width:20.148;stroke-linecap:round;stroke-linejoin:round;stroke-miterlimit:10;stroke-dasharray:none;stroke-opacity:1" id="path605" fill="none" stroke="#000000" stroke-width="20.148" stroke-linecap="round" stroke-linejoin="round" stroke-miterlimit="10" stroke-dasharray="none" stroke-opacity="" data-original="#000000"></path></g><g id="g607" transform="translate(383.8389,258.396)"><path d="M 0,0 V -57.132" style="stroke-width:20.148;stroke-linecap:round;stroke-linejoin:round;stroke-miterlimit:10;stroke-dasharray:none;stroke-opacity:1" id="path609" fill="none" stroke="#000000" stroke-width="20.148" stroke-linecap="round" stroke-linejoin="round" stroke-miterlimit="10" stroke-dasharray="none" stroke-opacity="" data-original="#000000"></path></g><g id="g611" transform="translate(116.4932,188.3457)"><path d="M 0,0 V -70.022" style="stroke-width:20.148;stroke-linecap:round;stroke-linejoin:round;stroke-miterlimit:10;stroke-dasharray:none;stroke-opacity:1" id="path613" fill="none" stroke="#000000" stroke-width="20.148" stroke-linecap="round" stroke-linejoin="round" stroke-miterlimit="10" stroke-dasharray="none" stroke-opacity="" data-original="#000000"></path></g><g id="g615" transform="translate(227.4648,188.3457)"><path d="M 0,0 V -70.022" style="stroke-width:20.148;stroke-linecap:round;stroke-linejoin:round;stroke-miterlimit:10;stroke-dasharray:none;stroke-opacity:1" id="path617" fill="none" stroke="#000000" stroke-width="20.148" stroke-linecap="round" stroke-linejoin="round" stroke-miterlimit="10" stroke-dasharray="none" stroke-opacity="" data-original="#000000"></path></g><g id="g619" transform="translate(71.0908,118.3237)"><path d="M 0,0 V -70.05" style="stroke-width:20.148;stroke-linecap:round;stroke-linejoin:round;stroke-miterlimit:10;stroke-dasharray:none;stroke-opacity:1" id="path621" fill="none" stroke="#000000" stroke-width="20.148" stroke-linecap="round" stroke-linejoin="round" stroke-miterlimit="10" stroke-dasharray="none" stroke-opacity="" data-original="#000000"></path></g><g id="g623" transform="translate(171.9785,118.3237)"><path d="M 0,0 V -70.05" style="stroke-width:20.148;stroke-linecap:round;stroke-linejoin:round;stroke-miterlimit:10;stroke-dasharray:none;stroke-opacity:1" id="path625" fill="none" stroke="#000000" stroke-width="20.148" stroke-linecap="round" stroke-linejoin="round" stroke-miterlimit="10" stroke-dasharray="none" stroke-opacity="" data-original="#000000"></path></g><g id="g627" transform="translate(282.9502,118.3237)"><path d="M 0,0 V -70.05" style="stroke-width:20.148;stroke-linecap:round;stroke-linejoin:round;stroke-miterlimit:10;stroke-dasharray:none;stroke-opacity:1" id="path629" fill="none" stroke="#000000" stroke-width="20.148" stroke-linecap="round" stroke-linejoin="round" stroke-miterlimit="10" stroke-dasharray="none" stroke-opacity="" data-original="#000000"></path></g><g id="g631" transform="translate(403.4414,27.2783)"><path d="m 0,0 c -22.87,12.58 -41.459,33.857 -55.795,58.483 -14.449,24.823 -22.279,51.053 -22.025,75.763 0.112,10.948 2.759,12.158 12.618,17.055 l 75.567,37.601 75.568,-37.601 C 95.79,146.404 98.466,145.194 98.551,134.246 98.805,109.536 90.975,83.306 76.525,58.483 62.189,33.857 43.601,12.58 20.729,0 11.604,-5.038 9.154,-5.038 0,0 Z" style="stroke-width:20.148;stroke-linecap:round;stroke-linejoin:round;stroke-miterlimit:10;stroke-dasharray:none;stroke-opacity:1" id="path633" fill="none" stroke="#000000" stroke-width="20.148" stroke-linecap="round" stroke-linejoin="round" stroke-miterlimit="10" stroke-dasharray="none" stroke-opacity="" data-original="#000000"></path></g><g id="g635" transform="translate(383.7256,116.6069)"><path d="M 0,0 20.729,-19.391 63.682,24.626" style="stroke-width:20.148;stroke-linecap:round;stroke-linejoin:round;stroke-miterlimit:10;stroke-dasharray:none;stroke-opacity:1" id="path637" fill="none" stroke="#000000" stroke-width="20.148" stroke-linecap="round" stroke-linejoin="round" stroke-miterlimit="10" stroke-dasharray="none" stroke-opacity="" data-original="#000000"></path></g><g id="g639" transform="translate(160.8535,412.8491)"><path d="M 0,0 0.028,0.028" style="stroke-width:20.148;stroke-linecap:round;stroke-linejoin:round;stroke-miterlimit:10;stroke-dasharray:none;stroke-opacity:1" id="path641" fill="none" stroke="#000000" stroke-width="20.148" stroke-linecap="round" stroke-linejoin="round" stroke-miterlimit="10" stroke-dasharray="none" stroke-opacity="" data-original="#000000"></path></g></g></g></g></g></svg>