<svg width="19" height="18" viewBox="0 0 19 18" fill="none" xmlns="http://www.w3.org/2000/svg">
<g clip-path="url(#clip0_110_430)">
<path d="M11.6129 5.14286H6.45161C6.1095 5.1432 5.7815 5.27877 5.53959 5.51981C5.29769 5.76085 5.16163 6.08768 5.16129 6.42857V11.5714C5.16163 11.9123 5.29769 12.2391 5.53959 12.4802C5.7815 12.7212 6.1095 12.8568 6.45161 12.8571H11.6129C11.955 12.8568 12.283 12.7212 12.5249 12.4802C12.7668 12.2391 12.9029 11.9123 12.9032 11.5714V6.42857C12.9029 6.08768 12.7668 5.76085 12.5249 5.51981C12.283 5.27877 11.955 5.1432 11.6129 5.14286ZM6.45161 11.5714V6.42857H11.6129L11.6135 11.5714H6.45161ZM17.4194 10.9286H16.1045V7.07143H17.4194C17.5905 7.07143 17.7546 7.0037 17.8756 6.88314C17.9965 6.76258 18.0645 6.59907 18.0645 6.42857C18.0645 6.25808 17.9965 6.09456 17.8756 5.974C17.7546 5.85344 17.5905 5.78571 17.4194 5.78571H16.1045V3.88157C16.104 3.37024 15.8999 2.88 15.5371 2.51843C15.1742 2.15686 14.6822 1.95351 14.169 1.953H12.2581V0.642857C12.2581 0.472361 12.1901 0.308848 12.0691 0.188288C11.9481 0.0677294 11.784 0 11.6129 0C11.4418 0 11.2777 0.0677294 11.1567 0.188288C11.0357 0.308848 10.9677 0.472361 10.9677 0.642857V1.953H7.09677V0.642857C7.09677 0.472361 7.0288 0.308848 6.90781 0.188288C6.78682 0.0677294 6.62272 0 6.45161 0C6.28051 0 6.11641 0.0677294 5.99541 0.188288C5.87442 0.308848 5.80645 0.472361 5.80645 0.642857V1.953H3.89548C3.38232 1.95351 2.89032 2.15686 2.52746 2.51843C2.16459 2.88 1.96051 3.37024 1.96 3.88157V5.78571H0.645161C0.474054 5.78571 0.309955 5.85344 0.188963 5.974C0.0679721 6.09456 0 6.25808 0 6.42857C0 6.59907 0.0679721 6.76258 0.188963 6.88314C0.309955 7.0037 0.474054 7.07143 0.645161 7.07143H1.96V10.9286H0.645161C0.474054 10.9286 0.309955 10.9963 0.188963 11.1169C0.0679721 11.2374 0 11.4009 0 11.5714C0 11.7419 0.0679721 11.9054 0.188963 12.026C0.309955 12.1466 0.474054 12.2143 0.645161 12.2143H1.96V14.1184C1.96051 14.6298 2.16459 15.12 2.52746 15.4816C2.89032 15.8431 3.38232 16.0465 3.89548 16.047H5.80645V17.3571C5.80645 17.5276 5.87442 17.6912 5.99541 17.8117C6.11641 17.9323 6.28051 18 6.45161 18C6.62272 18 6.78682 17.9323 6.90781 17.8117C7.0288 17.6912 7.09677 17.5276 7.09677 17.3571V16.047H10.9677V17.3571C10.9677 17.5276 11.0357 17.6912 11.1567 17.8117C11.2777 17.9323 11.4418 18 11.6129 18C11.784 18 11.9481 17.9323 12.0691 17.8117C12.1901 17.6912 12.2581 17.5276 12.2581 17.3571V16.047H14.169C14.6822 16.0465 15.1742 15.8431 15.5371 15.4816C15.8999 15.12 16.104 14.6298 16.1045 14.1184V12.2143H17.4194C17.5905 12.2143 17.7546 12.1466 17.8756 12.026C17.9965 11.9054 18.0645 11.7419 18.0645 11.5714C18.0645 11.4009 17.9965 11.2374 17.8756 11.1169C17.7546 10.9963 17.5905 10.9286 17.4194 10.9286ZM14.8142 14.1184C14.814 14.2889 14.746 14.4523 14.625 14.5728C14.5041 14.6933 14.3401 14.7611 14.169 14.7613H3.89548C3.72443 14.7611 3.56043 14.6933 3.43947 14.5728C3.31852 14.4523 3.25049 14.2889 3.25032 14.1184V3.88157C3.25049 3.71113 3.31852 3.54771 3.43947 3.42719C3.56043 3.30667 3.72443 3.23888 3.89548 3.23871H14.169C14.3401 3.23888 14.5041 3.30667 14.625 3.42719C14.746 3.54771 14.814 3.71113 14.8142 3.88157V14.1184Z" fill="#0080FF"/>
</g>
<defs>
<clipPath id="clip0_110_430">
<rect width="18.0645" height="18" fill="white"/>
</clipPath>
</defs>
</svg>
