<svg width="18" height="18" viewBox="0 0 18 18" fill="none" xmlns="http://www.w3.org/2000/svg">
<path d="M9 18C7.21997 18 5.47991 17.4722 3.99987 16.4832C2.51983 15.4943 1.36628 14.0887 0.685088 12.4442C0.00389964 10.7996 -0.17433 8.99002 0.172936 7.24419C0.520203 5.49836 1.37737 3.89471 2.63604 2.63604C3.89471 1.37737 5.49836 0.520203 7.24419 0.172936C8.99002 -0.17433 10.7996 0.00389964 12.4442 0.685088C14.0887 1.36628 15.4943 2.51983 16.4832 3.99987C17.4722 5.47991 18 7.21997 18 9C18 9.15913 17.9368 9.31174 17.8243 9.42427C17.7117 9.53679 17.5591 9.6 17.4 9.6C17.2409 9.6 17.0883 9.53679 16.9757 9.42427C16.8632 9.31174 16.8 9.15913 16.8 9C16.8 7.45731 16.3425 5.94926 15.4855 4.66655C14.6284 3.38385 13.4102 2.38411 11.9849 1.79374C10.5597 1.20338 8.99135 1.04891 7.4783 1.34988C5.96525 1.65084 4.57542 2.39372 3.48457 3.48457C2.39372 4.57542 1.65084 5.96525 1.34988 7.4783C1.04891 8.99135 1.20338 10.5597 1.79374 11.9849C2.38411 13.4102 3.38385 14.6284 4.66655 15.4855C5.94926 16.3425 7.45731 16.8 9 16.8C9.15913 16.8 9.31174 16.8632 9.42427 16.9757C9.53679 17.0883 9.6 17.2409 9.6 17.4C9.6 17.5591 9.53679 17.7117 9.42427 17.8243C9.31174 17.9368 9.15913 18 9 18Z" fill="#0080FF"/>
<path d="M15.9 5.39995H2.1C1.94087 5.39995 1.78826 5.33674 1.67574 5.22421C1.56321 5.11169 1.5 4.95908 1.5 4.79995C1.5 4.64082 1.56321 4.48821 1.67574 4.37569C1.78826 4.26317 1.94087 4.19995 2.1 4.19995H15.9C16.0591 4.19995 16.2117 4.26317 16.3243 4.37569C16.4368 4.48821 16.5 4.64082 16.5 4.79995C16.5 4.95908 16.4368 5.11169 16.3243 5.22421C16.2117 5.33674 16.0591 5.39995 15.9 5.39995ZM9 9.59995H0.6C0.44087 9.59995 0.288258 9.53674 0.175736 9.42421C0.0632141 9.31169 0 9.15908 0 8.99995C0 8.84082 0.0632141 8.68821 0.175736 8.57569C0.288258 8.46316 0.44087 8.39995 0.6 8.39995H9C9.15913 8.39995 9.31174 8.46316 9.42426 8.57569C9.53678 8.68821 9.6 8.84082 9.6 8.99995C9.6 9.15908 9.53678 9.31169 9.42426 9.42421C9.31174 9.53674 9.15913 9.59995 9 9.59995ZM7.2 13.7999H2.1C1.94087 13.7999 1.78826 13.7367 1.67574 13.6242C1.56321 13.5117 1.5 13.3591 1.5 13.1999C1.5 13.0408 1.56321 12.8882 1.67574 12.7757C1.78826 12.6632 1.94087 12.5999 2.1 12.5999H7.2C7.35913 12.5999 7.51174 12.6632 7.62426 12.7757C7.73678 12.8882 7.8 13.0408 7.8 13.1999C7.8 13.3591 7.73678 13.5117 7.62426 13.6242C7.51174 13.7367 7.35913 13.7999 7.2 13.7999Z" fill="#0080FF"/>
<path d="M9 18C6.4767 18 4.5 14.0466 4.5 9C4.5 3.9534 6.4767 0 9 0C11.1687 0 12.9813 2.9358 13.4073 7.14C13.4152 7.2184 13.4075 7.29758 13.3848 7.37303C13.3621 7.44847 13.3247 7.51871 13.2749 7.57971C13.1742 7.70293 13.0286 7.78108 12.8703 7.797C12.7919 7.80488 12.7127 7.79724 12.6373 7.77451C12.5618 7.75179 12.4916 7.71443 12.4306 7.66457C12.3074 7.56386 12.2292 7.41833 12.2133 7.26C11.8632 3.8055 10.4814 1.2 9 1.2C7.44 1.2 5.7 4.4034 5.7 9C5.7 13.5966 7.44 16.8 9 16.8C9.15913 16.8 9.31174 16.8632 9.42426 16.9757C9.53679 17.0883 9.6 17.2409 9.6 17.4C9.6 17.5591 9.53679 17.7117 9.42426 17.8243C9.31174 17.9368 9.15913 18 9 18Z" fill="#0080FF"/>
<path d="M13.2001 18.0001C12.2508 18.0001 11.3228 17.7186 10.5334 17.1912C9.74406 16.6638 9.12883 15.9141 8.76553 15.037C8.40223 14.1599 8.30717 13.1948 8.49238 12.2637C8.67759 11.3326 9.13474 10.4773 9.80604 9.80604C10.4773 9.13474 11.3326 8.67759 12.2637 8.49238C13.1948 8.30717 14.1599 8.40223 15.037 8.76553C15.9141 9.12883 16.6638 9.74406 17.1912 10.5334C17.7186 11.3228 18.0001 12.2508 18.0001 13.2001C17.9986 14.4727 17.4924 15.6927 16.5926 16.5926C15.6927 17.4924 14.4727 17.9986 13.2001 18.0001ZM13.2001 9.60015C12.4881 9.60015 11.7921 9.81128 11.2001 10.2069C10.6081 10.6024 10.1467 11.1647 9.87418 11.8225C9.60171 12.4803 9.53041 13.2041 9.66932 13.9025C9.80823 14.6008 10.1511 15.2423 10.6546 15.7457C11.158 16.2492 11.7995 16.5921 12.4978 16.731C13.1962 16.8699 13.92 16.7986 14.5778 16.5261C15.2356 16.2536 15.7979 15.7922 16.1934 15.2002C16.589 14.6082 16.8001 13.9122 16.8001 13.2001C16.7991 12.2457 16.4195 11.3306 15.7446 10.6557C15.0697 9.9808 14.1546 9.60118 13.2001 9.60015Z" fill="#0080FF"/>
<path d="M12.3001 14.7C12.1814 14.6999 12.0654 14.6647 11.9668 14.5988C11.8681 14.5329 11.7913 14.4392 11.7459 14.3295C11.7005 14.2199 11.6886 14.0993 11.7117 13.9829C11.7349 13.8666 11.792 13.7597 11.8759 13.6757L12.6001 12.9516V10.8C12.6001 10.6408 12.6633 10.4882 12.7758 10.3757C12.8883 10.2632 13.0409 10.2 13.2001 10.2C13.3592 10.2 13.5118 10.2632 13.6243 10.3757C13.7369 10.4882 13.8001 10.6408 13.8001 10.8V13.2C13.8 13.3591 13.7368 13.5117 13.6243 13.6242L12.7243 14.5242C12.6686 14.58 12.6025 14.6242 12.5297 14.6544C12.4569 14.6846 12.3789 14.7001 12.3001 14.7Z" fill="#0080FF"/>
</svg>
