<svg width="18" height="18" viewBox="0 0 18 18" fill="none" xmlns="http://www.w3.org/2000/svg">
<path d="M16.7975 10.2024C16.7975 12.2852 15.9864 14.2433 14.5136 15.7161C13.0409 17.1889 11.0827 18 8.99994 18C6.91715 18 4.95901 17.1889 3.48625 15.7161C2.01348 14.2433 1.20239 12.2852 1.20239 10.2024C1.20239 8.80949 1.57431 7.44223 2.278 6.24846C2.9607 5.09027 3.9366 4.12221 5.1002 3.44897C5.36901 3.29333 5.71322 3.3852 5.86875 3.65414C6.02435 3.92302 5.93249 4.26716 5.66358 4.42269C3.76929 5.51869 2.5364 7.48255 2.35225 9.63988H2.97416C3.28484 9.63988 3.53666 9.8917 3.53666 10.2024C3.53666 10.5131 3.28484 10.7649 2.97416 10.7649H2.35133C2.62239 13.9964 5.20599 16.58 8.43744 16.851V16.2282C8.43744 15.9175 8.68927 15.6657 8.99994 15.6657C9.31062 15.6657 9.56244 15.9175 9.56244 16.2282V16.851C12.7939 16.58 15.3775 13.9964 15.6486 10.7649H15.0257C14.715 10.7649 14.4632 10.5131 14.4632 10.2024C14.4632 9.89174 14.715 9.63991 15.0257 9.63991H15.6476C15.4635 7.48259 14.2306 5.51865 12.3362 4.42273C12.0674 4.26716 11.9755 3.92309 12.1311 3.65418C12.2866 3.3853 12.6308 3.29344 12.8996 3.449C14.0632 4.12218 15.0391 5.09027 15.7219 6.2485C16.4255 7.44223 16.7975 8.80949 16.7975 10.2024ZM7.89688 2.46101L8.43333 1.92456L8.42426 4.45226C8.42317 4.76293 8.67408 5.01564 8.98472 5.0168H8.98679C9.29652 5.0168 9.54813 4.76627 9.54926 4.45634L9.55836 1.91637L10.103 2.46101C10.2128 2.57084 10.3568 2.62579 10.5007 2.62579C10.6447 2.62579 10.7886 2.57084 10.8985 2.46101C11.1181 2.24135 11.1181 1.88518 10.8985 1.66553L9.39766 0.164742C9.17801 -0.0549141 8.82184 -0.0549141 8.60218 0.164742L7.1014 1.66553C6.88174 1.88518 6.88174 2.24135 7.1014 2.46101C7.32106 2.68066 7.67722 2.68066 7.89688 2.46101ZM9.56244 6.12974V8.40182C10.151 8.58603 10.6163 9.05143 10.8006 9.63991H12.5757C12.8864 9.63991 13.1382 9.89174 13.1382 10.2024C13.1382 10.5131 12.8864 10.7649 12.5757 10.7649H10.8006C10.5607 11.5311 9.84425 12.0887 8.99994 12.0887C7.95984 12.0887 7.11367 11.2425 7.11367 10.2024C7.11367 9.35814 7.67125 8.64169 8.43744 8.40182V6.12974C8.43744 5.81906 8.68927 5.56724 8.99994 5.56724C9.31062 5.56724 9.56244 5.81906 9.56244 6.12974ZM9.76125 10.2024C9.76125 9.78265 9.41971 9.44114 8.99994 9.44114C8.58018 9.44114 8.23867 9.78265 8.23867 10.2024C8.23867 10.6222 8.58018 10.9637 8.99994 10.9637C9.41971 10.9637 9.76125 10.6222 9.76125 10.2024Z" fill="#0080FF"/>
</svg>
